# xmcd
#
# Track frame offsets:
#	150
#	20313
#	52544
#	74291
#	102674
#	124122
#	164897
#	200811
#	218460
#	255444
#	298545
#	320762
#
# Disc length: 4668 seconds
#
# Revision: 1
# Processed by: cddbd v1.5.2PL0 Copyright (c) Steve Scherf et al.
# Submitted via: EasyCDDAExtractor 12.0.7.1
#
DISCID=b1123a0c
DTITLE=Candy Dulfer - Live At Montreux 2002
DYEAR=2005
DGENRE=Blues
TTITLE0=Dance
TTITLE1=Omara's Dance
TTITLE2=Longin' For The Funk
TTITLE3=I'll Be Released
TTITLE4=Do Watchu Like
TTITLE5=Sax-A-Go-Go pts 1 and 2
TTITLE6=Ooh Let's Go
TTITLE7=Lily Was Here
TTITLE8=2 Miles
TTITLE9=Pick Up The Pieces
TTITLE10=Gimme Some More
TTITLE11=Pass The Peas
EXTD=
EXTT0=
EXTT1=
EXTT2=
EXTT3=
EXTT4=
EXTT5=
EXTT6=
EXTT7=
EXTT8=
EXTT9=
EXTT10=
EXTT11=
PLAYORDER=
